#define 16066_7c3c14fe3541d8178c649ef589858e81d35c43105be99d80d4fe99a72da09638_width 32
#define 16066_7c3c14fe3541d8178c649ef589858e81d35c43105be99d80d4fe99a72da09638_height 32
static char 16066_7c3c14fe3541d8178c649ef589858e81d35c43105be99d80d4fe99a72da09638_bits[] = {
  0x00, 0x00, 0x00, 0x00, 0x00, 0x00, 0x00, 0x00, 0x00, 0x00, 0x00, 0x00, 
  0x00, 0x00, 0x00, 0x00, 0x00, 0x00, 0x00, 0x00, 0x00, 0x00, 0x00, 0x00, 
  0x00, 0x00, 0x00, 0x00, 0x00, 0x00, 0x00, 0x00, 0xF0, 0x03, 0xE0, 0x07, 
  0xF8, 0x0F, 0xF0, 0x1F, 0x3C, 0x1C, 0x38, 0x3C, 0x0E, 0x38, 0x1C, 0x70, 
  0x07, 0x70, 0x0E, 0x60, 0x07, 0xE0, 0x07, 0xE0, 0x03, 0xC0, 0x03, 0xC0, 
  0x03, 0xC0, 0x03, 0xC0, 0x03, 0xC0, 0x03, 0xC0, 0x07, 0xE0, 0x07, 0xC0, 
  0x06, 0x70, 0x0E, 0xE0, 0x0E, 0x38, 0x1C, 0x70, 0x1C, 0x1E, 0x78, 0x3C, 
  0xF8, 0x0F, 0xF0, 0x1F, 0xF0, 0x03, 0xC0, 0x07, 0x00, 0x00, 0x00, 0x00, 
  0x00, 0x00, 0x00, 0x00, 0x00, 0x00, 0x00, 0x00, 0x00, 0x00, 0x00, 0x00, 
  0x00, 0x00, 0x00, 0x00, 0x00, 0x00, 0x00, 0x00, 0x00, 0x00, 0x00, 0x00, 
  0x00, 0x00, 0x00, 0x00, 0x00, 0x00, 0x00, 0x00, };
